<?xml version="1.0" standalone="no"?>
<!DOCTYPE svg PUBLIC "-//W3C//DTD SVG 20010904//EN"
 "http://www.w3.org/TR/2001/REC-SVG-20010904/DTD/svg10.dtd">
<svg version="1.0" xmlns="http://www.w3.org/2000/svg"
 width="400.000000pt" height="400.000000pt" viewBox="0 0 400.000000 400.000000"
 preserveAspectRatio="xMidYMid meet">
<metadata>
Created by potrace 1.14, written by Peter Selinger 2001-2017
</metadata>
<g transform="translate(0.000000,400.000000) scale(0.100000,-0.100000)"
fill="#000000" stroke="none">
<path d="M0 3570 c0 -298 4 -431 11 -436 8 -5 8 -9 0 -14 -8 -4 -11 -55 -8
-166 2 -99 6 -151 11 -136 5 12 15 22 22 22 8 0 14 8 15 18 0 9 2 30 2 46 1
16 7 31 14 33 9 3 11 -14 8 -66 -3 -43 -1 -71 6 -71 12 0 -14 -52 -34 -69 -25
-20 -31 6 -10 42 22 37 20 65 -3 46 -8 -6 -14 -21 -14 -33 0 -17 -2 -18 -10
-6 -7 10 -10 -12 -10 -72 0 -60 4 -88 13 -91 9 -4 9 -6 0 -6 -16 -1 -19 -487
-3 -506 8 -9 8 -15 0 -20 -8 -5 -8 -11 1 -21 8 -10 8 -14 0 -14 -8 0 -11 -210
-11 -781 0 -694 2 -780 15 -769 9 7 15 8 15 2 0 -5 -7 -12 -15 -16 -20 -7 -20
-79 -1 -95 12 -10 16 -8 21 10 4 12 20 42 36 67 16 25 34 61 40 81 7 20 17 39
23 43 7 5 4 12 -8 21 -18 13 -14 43 4 32 5 -3 12 7 16 22 3 15 10 40 16 55 5
15 7 32 2 39 -4 8 -3 10 4 5 8 -5 12 1 12 15 0 36 46 86 120 129 85 50 103 52
32 4 -30 -20 -57 -47 -63 -62 -5 -15 -16 -40 -25 -56 -23 -39 -84 -290 -84
-341 0 -74 -10 -106 -39 -116 -14 -6 -47 -24 -73 -41 l-48 -30 0 -134 0 -134
1403 0 1402 0 0 88 c0 78 3 92 27 129 15 23 32 44 38 48 5 3 10 11 10 17 0 7
-13 -1 -30 -17 -48 -46 -45 -22 7 45 51 67 122 129 110 97 -6 -15 -4 -16 14
-6 13 6 18 16 15 26 -4 11 -2 13 9 9 16 -6 120 62 110 72 -3 3 -16 -5 -30 -18
l-24 -23 -28 32 c-32 36 -49 41 -31 9 7 -13 11 -29 9 -36 -1 -10 4 -12 21 -7
18 5 19 4 8 -4 -8 -6 -25 -8 -37 -4 -15 3 -23 1 -24 -8 0 -8 -3 -6 -8 4 -6 16
-11 14 -54 -18 -26 -20 -47 -39 -47 -43 0 -4 -16 -25 -34 -46 l-35 -39 -7 38
c-8 47 2 206 17 260 14 50 77 180 108 223 38 54 17 47 -28 -9 -55 -70 -86
-136 -117 -254 -32 -117 -36 -258 -11 -368 16 -75 5 -102 -15 -35 -8 28 -13
106 -13 218 0 157 2 182 23 244 39 117 54 141 164 269 18 20 53 50 78 66 25
17 51 34 58 39 11 7 9 23 -13 83 -15 41 -29 82 -32 92 -7 21 32 67 56 67 14 0
51 -64 51 -89 0 -5 9 -30 21 -56 18 -40 24 -46 42 -41 121 35 150 40 242 39
108 -1 265 -36 335 -74 76 -43 112 -67 143 -97 30 -29 66 -45 53 -23 -8 12 21
34 33 26 7 -4 11 297 11 940 0 717 -3 945 -12 945 -6 0 -8 3 -5 7 4 3 0 17 -8
30 -9 13 -14 27 -11 31 3 5 -1 20 -9 35 -8 15 -11 27 -7 27 11 0 37 -43 34
-57 -1 -6 2 -14 8 -18 7 -4 10 47 10 154 0 118 -3 161 -12 164 -10 4 -10 6 0
6 18 1 15 32 -5 47 -17 13 -17 15 1 25 15 9 16 13 5 20 -10 6 -11 9 -1 9 7 0
12 13 12 31 0 21 -4 28 -12 23 -10 -6 -10 -4 0 7 14 16 16 43 2 34 -6 -3 -10
-2 -10 4 0 5 5 13 10 16 6 4 10 115 10 301 l0 294 -2000 0 -2000 0 0 -430z
m885 390 c3 -5 -1 -10 -10 -10 -9 0 -13 5 -10 10 3 6 8 10 10 10 2 0 7 -4 10
-10z m-155 -20 c0 -5 -7 -10 -15 -10 -8 0 -15 5 -15 10 0 6 7 10 15 10 8 0 15
-4 15 -10z m1666 -27 c-10 -10 -19 5 -10 18 6 11 8 11 12 0 2 -7 1 -15 -2 -18z
m-1666 -17 c0 -3 -4 -8 -10 -11 -5 -3 -10 -1 -10 4 0 6 5 11 10 11 6 0 10 -2
10 -4z m-505 -44 c0 -18 -20 -15 -23 4 -3 10 1 15 10 12 7 -3 13 -10 13 -16z
m445 -22 c0 -5 -2 -10 -4 -10 -3 0 -8 5 -11 10 -3 6 -1 10 4 10 6 0 11 -4 11
-10z m310 -44 c0 -3 -4 -8 -10 -11 -5 -3 -10 -1 -10 4 0 6 5 11 10 11 6 0 10
-2 10 -4z m-215 -27 c12 -19 -5 -23 -22 -6 -16 16 -16 17 -1 17 9 0 20 -5 23
-11z m1393 -29 c85 -14 236 -66 297 -101 81 -48 87 -52 160 -106 142 -104 295
-286 343 -408 13 -33 29 -73 37 -90 12 -28 21 -66 60 -252 8 -40 18 -112 21
-160 8 -114 -12 -656 -31 -843 -14 -131 -54 -326 -75 -359 -9 -16 -110 14
-203 61 -32 16 -66 28 -75 26 -9 -2 24 -21 73 -42 118 -51 195 -88 195 -92 0
-2 -12 -15 -26 -29 l-26 -26 -67 26 c-185 73 -241 100 -236 113 3 8 5 25 5 39
0 22 3 24 33 19 l32 -6 -31 16 c-24 13 -33 25 -38 53 -3 20 -12 45 -20 56 -14
18 -15 17 -6 -15 22 -79 2 -230 -36 -260 -8 -8 -20 -22 -26 -33 -8 -16 -4 -15
25 7 21 16 37 39 41 56 3 17 11 30 17 30 6 0 46 -16 89 -35 43 -19 83 -35 89
-35 18 0 131 -59 131 -69 0 -31 -63 -143 -142 -251 -33 -45 -154 -170 -195
-202 -74 -57 -186 -64 -378 -25 -118 25 -235 66 -187 67 12 0 22 5 22 11 0 5
5 7 10 4 6 -3 10 -2 10 3 0 4 -39 23 -87 41 -107 40 -244 106 -297 143 -21 16
-45 28 -53 28 -7 0 -13 5 -13 10 0 6 -5 10 -10 10 -11 0 -53 28 -104 68 -16
13 -35 21 -43 18 -8 -3 -12 -2 -8 3 3 5 -16 27 -42 48 -26 21 -58 50 -71 66
-25 29 -47 35 -55 15 -3 -7 -6 -2 -6 12 -1 17 -25 49 -72 98 -38 39 -67 72
-63 72 3 0 2 6 -4 13 -6 7 -25 41 -42 75 l-31 62 -42 -5 c-23 -3 -55 -8 -70
-10 -16 -3 -42 2 -59 11 -67 34 -198 194 -242 294 -52 116 -45 313 14 429 16
32 29 42 71 56 48 16 54 16 105 0 55 -17 85 -36 141 -89 44 -41 42 -27 -4 24
-34 37 -122 90 -150 90 -53 0 -35 352 26 520 46 128 52 144 66 171 17 33 56
92 84 129 44 58 214 220 231 220 4 0 24 13 44 29 103 82 348 181 497 200 93
12 324 13 397 1z m1752 -154 c0 -3 -4 -8 -10 -11 -5 -3 -10 -1 -10 4 0 6 5 11
10 11 6 0 10 -2 10 -4z m-221 -63 c0 -25 -1 -26 -9 -8 -12 27 -12 35 0 35 6 0
10 -12 9 -27z m291 6 c0 -15 -18 -19 -23 -6 -3 8 1 14 9 14 8 0 14 -4 14 -8z
m-3320 -20 c0 -14 -17 -10 -23 5 -4 10 -1 13 9 9 7 -3 14 -9 14 -14z m3184
-38 c3 -5 -1 -14 -8 -20 -12 -10 -14 -9 -11 6 2 10 4 19 4 21 2 5 10 2 15 -7z
m-214 -34 c0 -5 -4 -5 -10 -2 -5 3 -10 14 -10 23 0 15 2 15 10 2 5 -8 10 -19
10 -23z m59 -21 l0 -51 -15 45 c-17 56 -17 57 1 57 11 0 15 -12 14 -51z m-127
20 c5 -10 7 -20 4 -23 -7 -7 -46 26 -46 38 0 14 32 3 42 -15z m-42 -11 c0 -2
-3 -10 -6 -19 -5 -13 -8 -13 -20 -1 -18 18 -18 20 6 22 11 1 20 0 20 -2z m380
-44 c0 -5 -7 -11 -14 -14 -10 -4 -13 -1 -9 9 6 15 23 19 23 5z m-940 -41 c0
-5 -7 -10 -15 -10 -8 0 -15 5 -15 10 0 6 7 10 15 10 8 0 15 -4 15 -10z m-2030
-52 c11 -12 20 -25 20 -30 0 -16 -17 -8 -45 22 -22 23 -25 30 -12 30 9 0 25
-10 37 -22z m-356 -14 c5 -14 4 -15 -9 -4 -17 14 -19 20 -6 20 5 0 12 -7 15
-16z m3386 6 c0 -5 -8 -10 -17 -10 -15 0 -16 2 -3 10 19 12 20 12 20 0z m-220
-10 c0 -5 -4 -10 -10 -10 -5 0 -10 5 -10 10 0 6 5 10 10 10 6 0 10 -4 10 -10z
m-3035 -50 c16 -18 16 -20 2 -20 -9 0 -21 9 -27 20 -6 11 -7 20 -2 20 5 0 17
-9 27 -20z m2680 -30 c-28 -12 -47 -12 -40 0 3 6 18 10 33 9 24 0 25 -1 7 -9z
m-2533 -37 c10 -9 18 -20 18 -25 0 -16 -18 -8 -34 17 -19 29 -11 33 16 8z
m-308 -8 c3 -9 0 -15 -9 -15 -8 0 -15 7 -15 15 0 8 4 15 9 15 5 0 11 -7 15
-15z m260 -11 c10 -25 -1 -29 -14 -5 -6 12 -7 21 -1 21 5 0 12 -7 15 -16z m-4
-103 l-1 -26 -28 35 c-16 19 -34 50 -39 70 l-11 35 40 -44 c25 -28 39 -53 39
-70z m2617 103 c-3 -3 -12 -4 -19 -1 -8 3 -5 6 6 6 11 1 17 -2 13 -5z m-3177
-44 c0 -5 -4 -10 -10 -10 -5 0 -10 5 -10 10 0 6 5 10 10 10 6 0 10 -4 10 -10z
m340 -38 c-1 -25 -2 -26 -15 -9 -7 11 -11 25 -8 33 8 22 23 6 23 -24z m3390
23 c16 -19 1 -19 -24 0 -16 12 -17 15 -4 15 8 0 21 -7 28 -15z m-527 -50 c-3
-9 -8 -14 -10 -11 -3 3 -2 9 2 15 9 16 15 13 8 -4z m517 5 c0 -5 -2 -10 -4
-10 -3 0 -8 5 -11 10 -3 6 -1 10 4 10 6 0 11 -4 11 -10z m-3240 -92 c0 -5 -4
-8 -10 -8 -5 0 -10 7 -10 15 0 8 -4 15 -10 15 -9 0 -40 51 -40 66 0 4 16 -13
35 -37 19 -24 35 -47 35 -51z m2585 72 c-3 -5 -11 -10 -16 -10 -6 0 -7 5 -4
10 3 6 11 10 16 10 6 0 7 -4 4 -10z m-2795 -31 c0 -5 -7 -9 -15 -9 -9 0 -15 9
-15 21 0 18 2 19 15 9 8 -7 15 -16 15 -21z m2977 9 c-3 -8 -6 -5 -6 6 -1 11 2
17 5 13 3 -3 4 -12 1 -19z m-3260 -98 c-2 -32 -7 -55 -15 -58 -14 -4 -15 21
-5 93 8 62 22 38 20 -35z m203 64 c0 -8 -4 -12 -10 -9 -5 3 -10 10 -10 16 0 5
5 9 10 9 6 0 10 -7 10 -16z m3478 -20 c-4 -3 -12 5 -18 18 -12 22 -12 22 6 6
10 -10 15 -20 12 -24z m-594 7 c-18 -11 -35 -24 -38 -30 -4 -6 -13 -11 -19
-11 -17 1 55 59 73 60 8 0 1 -9 -16 -19z m186 15 c0 -3 -4 -8 -10 -11 -5 -3
-10 -1 -10 4 0 6 5 11 10 11 6 0 10 -2 10 -4z m54 -30 c-6 -16 -24 -23 -24 -8
0 10 22 33 27 28 2 -2 1 -11 -3 -20z m-119 -6 c-10 -11 -20 -18 -23 -15 -7 6
18 35 31 35 5 0 2 -9 -8 -20z m-2975 -21 c0 -5 -4 -9 -10 -9 -5 0 -10 7 -10
16 0 8 5 12 10 9 6 -3 10 -10 10 -16z m3434 -51 c3 -15 2 -30 -4 -33 -8 -5
-11 2 -10 30 0 3 -7 20 -16 38 -16 32 -16 32 4 12 11 -11 22 -32 26 -47z
m-3314 -4 c0 -19 -4 -34 -9 -34 -10 0 -21 35 -21 69 0 20 2 21 15 11 8 -7 15
-28 15 -46z m3000 38 c-1 -4 -12 -20 -26 -37 l-25 -30 7 30 c8 36 23 57 35 49
5 -3 9 -8 9 -12z m-131 -52 c-19 -33 -25 -38 -32 -24 -7 12 -2 24 19 45 36 38
41 30 13 -21z m-3059 19 c0 -5 -4 -9 -10 -9 -5 0 -10 7 -10 16 0 8 5 12 10 9
6 -3 10 -10 10 -16z m3310 -13 c-14 -14 -22 -2 -14 18 5 14 9 15 15 4 4 -7 4
-17 -1 -22z m27 -8 c-3 -8 -6 -5 -6 6 -1 11 2 17 5 13 3 -3 4 -12 1 -19z m233
-24 c0 5 7 3 15 -4 8 -7 15 -18 15 -24 0 -6 -7 -2 -15 8 -17 23 -20 14 -5 -15
19 -34 -4 -20 -30 19 -35 52 -37 61 -6 33 14 -14 26 -21 26 -17z m-282 -80
l-12 -29 -4 39 c-3 34 -6 38 -28 33 -29 -5 -33 17 -5 33 14 7 22 7 27 -1 4 -8
10 -5 18 7 10 17 11 15 14 -17 2 -19 -3 -48 -10 -65z m166 57 c-6 -6 -24 19
-24 34 1 6 7 1 15 -9 8 -11 12 -22 9 -25z m-501 14 c-3 -9 -8 -14 -10 -11 -3
3 -2 9 2 15 9 16 15 13 8 -4z m119 -7 c-7 -7 -12 -8 -12 -2 0 6 3 14 7 17 3 4
9 5 12 2 2 -3 -1 -11 -7 -17z m418 -4 c0 -8 -6 -14 -12 -14 -9 0 -10 -2 -2 -8
16 -10 27 -49 18 -64 -11 -17 -33 53 -27 85 5 27 23 28 23 1z m-3720 6 c0 -5
-2 -10 -4 -10 -3 0 -8 5 -11 10 -3 6 -1 10 4 10 6 0 11 -4 11 -10z m3232 -12
c-7 -7 -12 -8 -12 -2 0 6 3 14 7 17 3 4 9 5 12 2 2 -3 -1 -11 -7 -17z m425
-30 c8 -17 9 -28 3 -28 -5 0 -10 7 -10 15 0 8 -4 15 -10 15 -5 0 -10 12 -9 28
0 15 3 21 6 12 3 -8 12 -27 20 -42z m-227 -22 c-7 -22 -14 -45 -15 -51 -2 -5
-4 7 -4 27 -1 20 4 49 10 65 17 42 24 9 9 -41z m-40 35 c0 -3 -5 -13 -10 -21
-7 -11 -10 -11 -10 -2 0 7 -4 10 -10 7 -10 -6 -14 7 -5 17 7 7 35 6 35 -1z
m-350 -11 c0 -5 -4 -10 -10 -10 -5 0 -10 5 -10 10 0 6 5 10 10 10 6 0 10 -4
10 -10z m271 -17 c-8 -15 -10 -15 -11 -2 0 17 10 32 18 25 2 -3 -1 -13 -7 -23z
m296 -25 c-3 -7 -5 -2 -5 12 0 14 2 19 5 13 2 -7 2 -19 0 -25z m80 10 c-3 -8
-6 -5 -6 6 -1 11 2 17 5 13 3 -3 4 -12 1 -19z m-3717 -18 c0 -5 -5 -10 -11
-10 -5 0 -7 5 -4 10 3 6 8 10 11 10 2 0 4 -4 4 -10z m3507 -22 c-3 -7 -5 -2
-5 12 0 14 2 19 5 13 2 -7 2 -19 0 -25z m-3553 7 c4 -10 -1 -15 -14 -15 -20 0
-26 11 -13 23 10 11 20 8 27 -8z m3472 -11 c-4 -9 -9 -15 -11 -12 -3 3 -3 13
1 22 4 9 9 15 11 12 3 -3 3 -13 -1 -22z m-3076 -71 c0 -7 -4 -13 -10 -13 -5 0
-10 12 -10 28 0 21 2 24 10 12 5 -8 10 -21 10 -27z m-364 -12 c-4 -5 -13 -8
-22 -4 -11 4 -12 8 -3 20 14 16 36 2 25 -16z m52 -42 c4 -32 -26 -49 -44 -24
-7 9 -16 15 -20 14 -5 -1 -20 -1 -34 0 -23 1 -23 3 -7 12 10 6 28 9 38 6 12
-3 22 0 26 9 9 24 38 11 41 -17z m-47 -72 c-1 -12 -15 -9 -19 4 -3 6 1 10 8 8
6 -3 11 -8 11 -12z m-71 -33 c0 -9 -5 -14 -12 -12 -18 6 -21 28 -4 28 9 0 16
-7 16 -16z m160 -24 c0 -5 -7 -10 -15 -10 -8 0 -15 -5 -15 -11 0 -6 -10 -9
-22 -7 -29 4 -26 21 4 30 35 9 48 9 48 -2z m390 -20 c0 -5 -4 -10 -10 -10 -5
0 -10 5 -10 10 0 6 5 10 10 10 6 0 10 -4 10 -10z m-334 -37 c-10 -10 -19 5
-10 18 6 11 8 11 12 0 2 -7 1 -15 -2 -18z m-121 -73 c3 -5 2 -10 -4 -10 -5 0
-13 5 -16 10 -3 6 -2 10 4 10 5 0 13 -4 16 -10z m-115 -20 c0 -5 -4 -10 -10
-10 -5 0 -10 5 -10 10 0 6 5 10 10 10 6 0 10 -4 10 -10z m110 -23 c0 -7 -9
-18 -20 -25 -23 -14 -25 -10 -8 18 14 23 28 26 28 7z m52 -12 c0 -5 -5 -11
-11 -13 -6 -2 -11 4 -11 13 0 9 5 15 11 13 6 -2 11 -8 11 -13z m-108 -26 c-8
-14 -24 -10 -24 6 0 9 6 12 15 9 8 -4 12 -10 9 -15z m-39 -69 c-3 -5 -10 -10
-16 -10 -5 0 -9 5 -9 10 0 6 7 10 16 10 8 0 12 -4 9 -10z m3325 -85 c0 -8 -7
-15 -15 -15 -8 0 -15 7 -15 15 0 8 7 15 15 15 8 0 15 -7 15 -15z m-2789 -62
c16 -10 29 -21 29 -25 0 -12 -63 16 -68 30 -5 16 5 15 39 -5z m-12 -267 c6 -8
25 -19 41 -26 17 -7 30 -19 30 -26 0 -19 -3 -18 -66 12 -30 14 -54 32 -54 40
0 18 34 18 49 0z m496 -186 c-3 -6 -1 -10 4 -10 6 0 11 -5 11 -11 0 -6 7 -17
15 -26 9 -8 13 -23 10 -33 -4 -13 1 -22 15 -30 11 -6 19 -19 18 -28 -2 -9 2
-17 9 -17 17 0 29 -15 12 -16 -8 0 -4 -4 9 -10 14 -5 20 -13 16 -20 -4 -7 -3
-9 4 -5 6 3 13 2 17 -4 3 -5 1 -10 -5 -10 -6 0 -8 -5 -5 -10 4 -6 11 -8 16 -5
5 3 7 0 4 -7 -3 -7 6 -25 20 -40 14 -15 25 -29 25 -32 0 -7 118 -165 147 -196
13 -14 23 -30 23 -37 0 -7 6 -16 13 -20 6 -4 22 -23 35 -40 30 -44 15 -43 -95
8 -48 22 -124 57 -168 76 -141 64 -167 78 -179 98 -8 14 -11 81 -8 228 l3 209
30 -47 c17 -26 33 -44 37 -41 3 4 2 10 -4 14 -13 9 -38 55 -58 110 -23 61 -19
64 10 9 14 -26 22 -52 19 -57z m-470 28 c25 -12 45 -28 45 -35 0 -19 -24 -16
-53 7 -14 11 -30 20 -35 20 -5 0 -15 7 -22 15 -19 23 10 20 65 -7z m565 -122
c0 -5 -7 -1 -15 10 -8 10 -14 24 -14 29 0 6 6 1 14 -9 8 -11 15 -24 15 -30z
m28 -31 c-3 -3 -9 2 -12 12 -6 14 -5 15 5 6 7 -7 10 -15 7 -18z m43 -24 c0 -3
2 -14 4 -24 2 -9 -1 -14 -7 -11 -5 3 -7 9 -4 12 3 3 -2 14 -11 24 -16 18 -16
18 0 12 9 -3 17 -9 18 -13z m1779 -30 c0 -5 -9 -11 -20 -14 -11 -3 -22 -12
-25 -21 -17 -53 -16 -51 -25 -36 -13 21 -13 24 11 54 19 25 59 36 59 17z m35
-35 c18 -13 16 -15 -26 -33 -36 -16 -45 -17 -47 -6 -4 17 26 53 43 53 6 0 20
-6 30 -14z m-1760 -16 c3 -5 1 -10 -4 -10 -6 0 -11 5 -11 10 0 6 2 10 4 10 3
0 8 -4 11 -10z m49 -28 c2 -4 -4 -8 -14 -8 -10 0 -16 4 -14 8 3 4 9 8 14 8 5
0 11 -4 14 -8z m1736 -2 c12 -8 12 -10 1 -10 -8 0 -29 -11 -47 -25 -38 -29
-44 -30 -44 -11 0 16 46 56 64 56 6 0 18 -5 26 -10z m-2525 -10 c3 -5 -3 -10
-14 -10 -12 0 -21 5 -21 10 0 6 6 10 14 10 8 0 18 -4 21 -10z m161 -5 c-22
-16 -45 -19 -73 -8 -15 6 -13 9 12 14 17 4 41 7 55 7 24 1 24 1 6 -13z m579
-33 c-3 -3 1 -12 8 -21 11 -14 10 -14 -6 -2 -9 8 -15 16 -12 19 3 3 -3 15 -12
26 -18 21 -18 21 5 2 12 -11 20 -21 17 -24z m-627 -6 c8 -5 9 -13 3 -24 -5
-10 -10 -69 -10 -132 -1 -63 -5 -131 -9 -150 -7 -30 -12 -35 -36 -33 -46 3
-76 31 -106 98 -15 34 -33 66 -39 69 -6 4 -11 32 -11 63 0 48 4 58 30 83 17
16 43 31 58 33 38 6 105 3 120 -7z m717 -75 c3 -5 0 -13 -6 -17 -7 -4 -9 -3
-5 4 3 6 -2 13 -11 15 -16 4 -16 5 -1 6 9 0 19 -3 23 -8z m28 -16 c-7 -21 -12
-19 -10 4 0 11 5 18 9 15 4 -3 5 -11 1 -19z m27 -30 c0 -8 -2 -15 -4 -15 -2 0
-6 7 -10 15 -3 8 -1 15 4 15 6 0 10 -7 10 -15z m36 -17 c-10 -5 -20 -7 -23 -4
-4 3 -1 6 7 6 10 0 10 3 -1 17 -13 15 -12 15 10 3 22 -11 23 -13 7 -22z m1467
-71 c-3 -5 -10 -4 -15 1 -6 6 -7 16 -3 22 6 9 9 9 16 -1 4 -7 5 -17 2 -22z
m-1243 7 c0 -8 -19 -13 -24 -6 -3 5 1 9 9 9 8 0 15 -2 15 -3z m-42 -40 c2 -1
-4 -4 -13 -8 -9 -3 -13 -2 -10 4 3 6 1 10 -4 10 -6 0 -11 5 -11 11 0 8 6 7 18
-2 9 -7 18 -14 20 -15z m127 -72 c-3 -3 -11 0 -18 7 -9 10 -8 11 6 5 10 -3 15
-9 12 -12z m20 -12 c-3 -5 -12 -10 -18 -10 -7 0 -6 4 3 10 19 12 23 12 15 0z
m101 -35 c10 -8 15 -14 9 -14 -5 0 -19 6 -29 14 -11 8 -15 15 -10 15 6 0 19
-7 30 -15z m127 -62 c-7 -2 -21 -2 -30 0 -10 3 -4 5 12 5 17 0 24 -2 18 -5z
m63 -2 c-3 -5 13 -12 37 -15 23 -4 49 -11 57 -16 11 -7 5 -8 -20 -5 -27 4 -30
3 -15 -4 19 -9 19 -10 -2 -10 -13 -1 -23 5 -23 13 0 8 -15 17 -35 20 -42 8
-56 26 -20 26 14 0 24 -4 21 -9z m-2 -46 c0 -5 9 -18 20 -27 18 -15 18 -17 5
-18 -9 0 -19 7 -23 15 -3 8 -13 15 -23 15 -10 1 -29 7 -43 15 -24 15 -24 15
20 13 25 -2 45 -7 44 -13z m80 -46 c-3 -5 -13 -9 -22 -8 -14 0 -13 2 3 9 11 5
14 9 8 9 -7 1 -13 6 -13 12 0 8 5 8 15 -1 8 -7 12 -16 9 -21z m-2027 -21 c-3
-8 -6 -5 -6 6 -1 11 2 17 5 13 3 -3 4 -12 1 -19z m-47 -68 c0 -5 -5 -10 -11
-10 -5 0 -7 5 -4 10 3 6 8 10 11 10 2 0 4 -4 4 -10z m-29 -43 c-10 -9 -11 -8
-5 6 3 10 9 15 12 12 3 -3 0 -11 -7 -18z m28 -35 c0 -14 -2 -13 -9 3 -8 19 -9
19 -9 1 -1 -11 -4 -17 -7 -13 -4 3 -4 13 0 22 7 20 26 10 25 -13z"/>
<path d="M1805 2836 c-5 -2 -22 -7 -37 -10 -60 -13 -24 -22 54 -13 144 16 355
-15 457 -67 35 -19 41 -19 41 -6 0 17 -76 49 -167 71 -80 19 -320 36 -348 25z"/>
<path d="M2750 2654 c0 -5 30 -9 68 -9 70 0 96 -9 186 -65 52 -33 77 -31 36 2
-67 55 -109 70 -201 76 -49 3 -89 1 -89 -4z"/>
<path d="M1830 2606 c-88 -20 -125 -40 -139 -75 -35 -84 39 -180 174 -224 48
-16 200 -25 212 -13 4 3 -28 6 -71 6 -108 0 -208 35 -258 91 -58 64 -60 137
-6 173 43 28 187 42 286 28 123 -18 152 -28 195 -67 30 -26 39 -42 40 -68 1
-42 -23 -81 -66 -107 -18 -11 -27 -20 -22 -20 26 0 78 44 92 77 20 50 5 103
-42 138 -67 52 -289 86 -395 61z"/>
<path d="M2677 2575 c-8 -8 -27 -48 -42 -90 -24 -64 -27 -85 -22 -139 7 -77
43 -173 91 -246 47 -72 46 -57 -4 34 -48 87 -51 105 -14 81 27 -17 27 -17 -4
21 -44 58 -57 104 -38 148 17 42 51 51 154 43 52 -5 58 -4 27 3 -61 14 -137
11 -167 -4 -16 -8 -28 -11 -28 -7 0 28 35 115 56 141 26 30 18 43 -9 15z"/>
<path d="M2164 2486 c-11 -29 0 -51 26 -51 21 0 25 5 25 30 0 24 -5 31 -23 33
-13 2 -24 -3 -28 -12z"/>
<path d="M2912 2395 c54 -29 78 -58 78 -98 0 -23 -21 -79 -36 -96 -1 -1 -33
-11 -71 -21 -55 -15 -62 -19 -33 -19 41 -1 107 28 134 57 10 12 21 41 23 65 4
36 1 48 -22 75 -30 36 -74 62 -102 62 -10 -1 3 -12 29 -25z"/>
<path d="M698 2292 c-23 -36 -39 -74 -42 -102 -3 -25 -3 -36 0 -25 10 32 95
156 112 163 9 3 18 0 20 -6 2 -7 10 -12 18 -12 7 0 29 -15 48 -34 20 -18 38
-31 42 -27 4 3 4 0 0 -7 -4 -6 1 -24 12 -40 34 -49 35 -76 2 -129 -19 -31 -32
-68 -36 -106 l-7 -58 49 -44 c44 -41 46 -45 24 -45 -14 1 -45 5 -69 9 -57 11
-109 67 -159 169 -19 40 -37 70 -40 67 -10 -10 79 -172 116 -212 36 -37 45
-42 103 -48 35 -4 82 -5 104 -3 l40 3 -2 42 c-1 22 -11 59 -22 82 -25 48 -26
69 -7 97 8 12 17 45 20 75 3 30 3 46 0 37 -9 -29 -18 -21 -44 42 -18 44 -39
73 -77 105 -58 50 -89 65 -136 65 -28 0 -37 -8 -69 -58z"/>
<path d="M2894 2326 c-11 -29 0 -51 26 -51 21 0 25 5 25 30 0 24 -5 31 -23 33
-13 2 -24 -3 -28 -12z"/>
<path d="M771 2312 c-1 -7 -6 -10 -11 -7 -6 4 -13 -7 -16 -25 -4 -17 -10 -33
-15 -36 -5 -3 -6 3 -3 13 5 17 5 17 -6 0 -6 -9 -9 -26 -5 -36 4 -12 0 -21 -11
-25 -13 -5 -14 -10 -6 -18 9 -9 16 -7 30 5 10 9 24 17 30 17 19 0 43 32 36 49
-3 9 -10 30 -14 46 -4 17 -8 24 -9 17z"/>
<path d="M764 2143 c22 -3 52 -13 67 -24 15 -10 31 -19 35 -19 4 0 -7 11 -26
25 -25 18 -45 25 -74 23 l-41 -1 39 -4z"/>
<path d="M2760 1930 c-11 -22 -34 -55 -51 -75 -20 -22 -26 -35 -17 -35 21 0
98 99 98 126 0 34 -7 30 -30 -16z"/>
<path d="M2621 1917 c-6 -8 -8 -17 -5 -20 9 -8 44 11 44 23 0 15 -26 12 -39
-3z"/>
<path d="M2113 863 c9 -2 25 -2 35 0 9 3 1 5 -18 5 -19 0 -27 -2 -17 -5z"/>
<path d="M2188 853 c7 -3 16 -2 19 1 4 3 -2 6 -13 5 -11 0 -14 -3 -6 -6z"/>
<path d="M2058 843 c7 -3 16 -2 19 1 4 3 -2 6 -13 5 -11 0 -14 -3 -6 -6z"/>
<path d="M2260 832 c0 -5 15 -7 33 -5 24 3 29 2 17 -6 -17 -12 -10 -14 15 -5
13 5 14 8 3 15 -17 11 -68 12 -68 1z"/>
<path d="M3276 1039 c-54 -21 -81 -28 -84 -21 -2 7 -8 12 -13 12 -20 0 25 -78
73 -127 l51 -52 -25 -12 -26 -11 18 -47 c10 -25 27 -68 39 -94 11 -27 21 -52
21 -57 0 -7 -81 -44 -84 -38 -2 3 -37 85 -67 156 -17 40 -27 40 -62 1 -19 -22
-27 -42 -27 -69 0 -22 4 -41 8 -44 5 -3 7 -18 5 -33 -4 -24 0 -30 24 -39 l28
-11 -27 -8 c-33 -9 -35 -16 -9 -32 16 -10 25 -8 53 10 40 27 97 57 110 57 6 0
44 15 86 33 177 77 506 115 615 72 13 -5 17 -2 17 14 0 14 -6 21 -19 21 -22 0
-31 19 -31 66 0 57 -103 156 -229 220 -84 42 -141 55 -256 60 -106 4 -113 3
-189 -27z m396 -49 c76 -33 177 -108 227 -171 42 -51 40 -63 -6 -55 -21 3 -68
6 -105 6 -48 0 -68 4 -68 13 0 32 -75 155 -118 194 -42 37 -44 42 -24 43 13 0
55 -14 94 -30z m-560 -315 c3 -14 1 -28 -3 -31 -5 -3 -9 9 -9 25 0 38 6 40 12
6z"/>
<path d="M3070 966 c0 -8 -14 -35 -30 -60 -55 -81 -68 -124 -74 -236 -5 -81
-4 -99 5 -77 6 15 14 27 19 27 5 0 11 9 15 20 3 11 12 19 18 17 7 -1 13 12 15
31 2 18 10 36 18 39 7 3 11 10 8 15 -4 6 -10 5 -16 -3 -7 -11 -8 -9 -4 4 3 10
6 28 7 40 0 21 1 21 9 2 6 -14 9 -16 10 -5 2 8 2 18 1 23 0 4 3 7 8 7 5 0 16
19 24 43 11 33 12 50 3 81 -11 39 -36 62 -36 32z"/>
<path d="M3981 883 c0 -16 4 -37 9 -48 6 -15 9 -8 9 28 1 26 -3 47 -9 47 -5 0
-10 -12 -9 -27z"/>
<path d="M3760 595 c-8 -2 -49 -9 -90 -15 -97 -16 -263 -70 -367 -120 -45 -22
-87 -40 -92 -40 -6 0 -11 -4 -11 -8 0 -5 -12 -14 -26 -21 -38 -17 -137 -95
-204 -160 -77 -75 -117 -155 -104 -208 10 -38 21 -26 26 26 4 36 15 62 43 101
35 48 194 190 212 190 5 0 25 12 44 26 45 34 184 99 289 135 161 56 234 69
383 69 125 0 164 8 121 24 -15 6 -194 7 -224 1z"/>
<path d="M3775 341 c-59 -8 -89 -23 -110 -55 -10 -15 -36 -28 -78 -40 -64 -17
-82 -24 -177 -70 -71 -34 -109 -58 -195 -120 l-69 -51 213 -3 c209 -2 214 -2
265 22 73 36 125 42 171 20 20 -9 39 -23 42 -31 4 -9 27 -13 84 -13 l79 0 0
169 c0 145 -2 170 -16 175 -19 7 -141 6 -209 -3z m-430 -241 c-3 -5 -12 -10
-18 -10 -7 0 -6 4 3 10 19 12 23 12 15 0z m516 -48 c-7 -2 -18 1 -23 6 -8 8
-4 9 13 5 13 -4 18 -8 10 -11z"/>
<path d="M2897 333 c-4 -3 -7 -11 -7 -17 0 -6 5 -5 12 2 6 6 9 14 7 17 -3 3
-9 2 -12 -2z"/>
</g>
</svg>
